<svg xmlns="http://www.w3.org/2000/svg" width="260" height="80" viewBox="0 0 260 80"><switch><g><path fill="#2587D2" d="M207.391 1.912h7.401l-.879 2.171h7.184l-.971 7.911h-9.796l-.82 1.356c-.593 1.08-1.206 1.13-2.533 1.13h-5.442l.916-7.459h.87c1.023 0 1.565-.367 2.126-1.356l1.944-3.753zM201.376 16.66h18.286l-.999 8.137h-6.531l-.555 4.521h6.313l-.999 8.137h-6.313l-1.071 8.723c-.068.551.277.678.57.678h4.789l-.81 6.597h-10.448c-2.047 0-2.792-1.508-2.22-4.972l1.354-11.026h-4.026l.999-8.137h4.026l.555-4.521h-3.919l.999-8.137zM234.236 1.912h6.966l-1.633 13.3h10.667l-3.191 25.992h-7.184l2.387-19.438h-14.15l-2.414 19.665h-7.185l3.22-26.219h10.884z"/><path fill="#2587D2" d="M238.319 53.462l-5.629-8.82-4.422 5.876c-1.422 2.108-3.206 2.938-5.367 2.938h-5.66l.694-5.65h3.047c1.3 0 2.313-.527 3.025-1.583l5.759-7.911 1.688-13.747h6.749l-1.66 13.521 9.855 15.375M225.259 7.66c.784 0 1.659-.422 1.936-1.582l.824-3.164h5.185l-1.403 6.102c-.57 2.261-1.948 3.617-4.145 3.617h-5.185l.611-4.973h2.177zM248.811 7.66c-.784 0-1.555-.422-1.548-1.582l-.046-3.164h-5.185l-.096 6.102c.015 2.261 1.117 3.617 3.257 3.617h5.185l.611-4.973h-2.178z"/><g><path fill="#2587D2" d="M156.129 1.912h8.054l-12.021 17.502h3.047l4.506-6.555h7.619l-15.54 23.732h12.547l-.833 6.782h-21.471l.638-5.199 8.955-12.658h-7.401l.86-7.006zM140.797 53.472l.849-6.914h21.471l-.849 6.914zM170.37 37.722l-.327-11.86h6.966l.492 11.86M176.89 1.912h8.44l-7.496 15.476c-.577 1.131-1.739 1.827-3.424 1.827h-6.135l.783-6.38h.871c1.024 0 1.565-.368 2.126-1.356l4.835-9.567z"/><path fill="#2587D2" d="M181.159 5.626h15.238l-5.312 43.263c-.385 3.133-1.672 4.521-4.909 4.521h-15.238l.854-6.955h11.755c.435 0 .689-.301.763-.905l4.097-33.369h-9.36"/></g><g><path fill="#2587D2" d="M106.903 34.249l.234-1.906h9.578l-.234 1.906h19.157l-.749 6.103H115.95c-.019.151 4.295 4.571 8.014 5.65 2.745.797 10.37.637 10.37.637l-.838 6.822s-9.403.407-14.362-1.13c-3.574-1.108-9.376-5.877-9.376-5.877s-8.534 5.229-14.283 6.363c-3.711.732-11.821.644-11.821.644l.839-6.904s7.421.254 10.79-.54c3.298-.778 10.616-5.362 10.653-5.666H85.474l.749-6.103h20.68zM89.942 3.962h8.49l.25-2.034h7.837l-.25 2.034h8.49l-.777 6.329h-8.49l-.444 3.616h8.272l-.749 6.103h-8.272l-.416 3.391h8.272l-.777 6.329h-8.272l-.25 2.034h-7.62l.25-2.034h-8.707l.777-6.329h8.707l.416-3.391H88.19l.749-6.103h8.489l.444-3.616h-8.707l.777-6.329zm26.507-1.356h23.292l-2.914 23.733c-.264 3.316-1.773 4.52-4.691 4.52h-6.966l.777-6.329h3.265c.578 0 .908-.301.982-.904L131.97 9.16h-5.878l-4.314 17.404c-.504 2.203-1.631 3.164-4.09 3.164h-4.789l.777-6.329h.87c.579 0 .842-.126.927-.452l3.217-13.788h-3.047l.806-6.553z"/></g><g><g fill="#2587D2"><path d="M194.153 73.189h-2.083l-.265 2.163h2.082zM91.788 74.705a8.236 8.236 0 0 1-3.767.892c-1.348 0-2.532-.314-3.553-.941-1.02-.627-1.757-1.509-2.21-2.646-.453-1.137-.592-2.418-.417-3.843a9.219 9.219 0 0 1 1.37-3.871c.739-1.163 1.696-2.048 2.871-2.656a8.161 8.161 0 0 1 3.806-.912c1.375 0 2.576.315 3.603.946a5.247 5.247 0 0 1 2.2 2.646c.44 1.134.573 2.413.398 3.837-.145 1.183-.462 2.246-.95 3.19a7.943 7.943 0 0 1-1.99 2.465l-1.361.893zm-.035-1.95c1.284-1.02 2.051-2.552 2.302-4.597.143-1.163.063-2.179-.24-3.048-.304-.869-.82-1.544-1.55-2.024-.73-.48-1.587-.72-2.568-.72-1.47 0-2.749.486-3.837 1.456s-1.75 2.419-1.987 4.346c-.229 1.869.073 3.303.91 4.303.835 1 1.998 1.5 3.489 1.5.704 0 1.433-.144 2.038-.383.605-.238 1.443-.833 1.443-.833zM98.192 75.352l1.764-14.368h1.972l-1.764 14.368h-1.972z"/><path d="M93.108 76.339l-4.181-4.974 1.334-1.229 4.18 4.974-1.333 1.229zM107.958 75.352l.747-6.086-4.724-8.282h2.398l2.405 4.332c.442.81.847 1.621 1.215 2.43a61.91 61.91 0 0 1 1.937-2.538l3.404-4.224h2.297l-6.961 8.282-.747 6.086h-1.971zM129.303 60.984h1.971l-1.019 8.301c-.177 1.444-.488 2.591-.931 3.44-.443.85-1.139 1.54-2.089 2.073-.949.533-2.142.799-3.578.799-1.395 0-2.509-.232-3.339-.696-.831-.464-1.381-1.135-1.653-2.014-.272-.879-.314-2.079-.127-3.602l1.019-8.301h1.971l-1.018 8.292c-.153 1.247-.146 2.168.022 2.759a2.246 2.246 0 0 0 1.072 1.367c.547.32 1.243.48 2.09.48 1.45 0 2.522-.317 3.216-.95.694-.634 1.152-1.853 1.374-3.656l1.019-8.292zM132.833 75.352l1.764-14.368h10.77l-.208 1.695h-8.799l-.54 4.401h8.24l-.207 1.686h-8.24l-.6 4.89h9.145l-.208 1.696h-11.117zM146.568 70.736l1.881-.004c.017.65.15 1.188.396 1.616.265.461.719.833 1.361 1.117.643.284 1.387.427 2.234.427.752 0 1.429-.108 2.031-.324.602-.216 1.068-.511 1.395-.887.327-.375.518-.786.572-1.23.055-.451-.032-.844-.261-1.181-.23-.336-.642-.619-1.237-.847-.382-.15-1.236-.384-2.566-.701-1.33-.316-2.251-.615-2.766-.897-.667-.359-1.142-.805-1.425-1.338-.284-.532-.385-1.129-.304-1.789.089-.725.386-1.403.89-2.034.504-.63 1.186-1.109 2.046-1.436a7.796 7.796 0 0 1 2.794-.49c1.104 0 2.057.172 2.858.515.801.343 1.388.848 1.76 1.514.372.666.523 1.421.453 2.264l-1.907.001c-.017-.841-.276-1.482-.779-1.922-.529-.464-1.366-.696-2.511-.696-1.192 0-2.087.211-2.684.632-.597.421-.932.929-1.005 1.524-.063.516.078.941.423 1.274.338.333 1.287.675 2.847 1.024 1.559.35 2.62.655 3.184.917.82.385 1.4.874 1.741 1.465.34.592.463 1.272.369 2.043-.094.764-.409 1.485-.946 2.161-.537.676-1.254 1.202-2.15 1.578-.897.376-1.876.564-2.939.564-1.348 0-2.455-.19-3.319-.569-.865-.379-1.509-.949-1.934-1.71-.425-.76-.593-1.621-.502-2.581zM172.091 60.984h1.972l-1.019 8.301c-.177 1.444-.488 2.591-.931 3.44-.443.85-1.139 1.54-2.089 2.073-.95.533-2.142.799-3.578.799-1.396 0-2.509-.232-3.339-.696-.831-.464-1.381-1.135-1.653-2.014-.272-.879-.314-2.079-.127-3.602l1.019-8.301h1.972l-1.018 8.292c-.153 1.247-.146 2.168.022 2.759.167.592.525 1.047 1.072 1.367.547.32 1.243.48 2.09.48 1.45 0 2.522-.317 3.216-.95.694-.634 1.152-1.853 1.373-3.656l1.018-8.292zM175.593 68.354c.293-2.385 1.186-4.252 2.679-5.601 1.493-1.349 3.29-2.024 5.39-2.024 1.375 0 2.575.317 3.602.951a5.278 5.278 0 0 1 2.199 2.651c.441 1.133.572 2.419.396 3.856-.179 1.457-.644 2.761-1.395 3.911s-1.721 2.021-2.912 2.612a8.265 8.265 0 0 1-3.726.887c-1.403 0-2.615-.327-3.639-.98a5.363 5.363 0 0 1-2.181-2.676c-.43-1.13-.567-2.326-.413-3.587zm2.029.03c-.213 1.732.103 3.096.946 4.092.843.996 1.993 1.495 3.449 1.495 1.483 0 2.766-.503 3.849-1.509 1.081-1.006 1.737-2.434 1.964-4.283.144-1.169.063-2.191-.239-3.063-.303-.873-.819-1.549-1.55-2.029-.73-.48-1.586-.72-2.569-.72-1.395 0-2.652.463-3.772 1.387-1.12.923-1.813 2.467-2.078 4.63zM210.461 70.795c-.605 1.561-1.495 2.752-2.669 3.572-1.175.82-2.537 1.23-4.089 1.23-1.605 0-2.872-.315-3.801-.946-.929-.63-1.582-1.543-1.96-2.739-.378-1.196-.483-2.48-.314-3.852.184-1.496.641-2.801 1.37-3.915a7.15 7.15 0 0 1 2.842-2.539 8.255 8.255 0 0 1 3.719-.868c1.49 0 2.698.366 3.624 1.098.927.732 1.508 1.761 1.745 3.087h-2.103c-.232-.821-.605-1.436-1.116-1.843-.598-.477-1.395-.716-2.391-.716-1.145 0-2.134.265-2.967.794a5.008 5.008 0 0 0-1.883 2.132 9.023 9.023 0 0 0-.807 2.759c-.15 1.222-.097 2.288.161 3.2.258.912.748 1.593 1.471 2.044.724.451 1.539.676 2.447.676 1.104 0 2.077-.307 2.917-.921.726-.53 1.294-1.281 1.707-2.254h2.097zM212.836 68.354c.293-2.385 1.186-4.252 2.679-5.601 1.494-1.349 3.29-2.024 5.39-2.024 1.374 0 2.575.317 3.602.951a5.278 5.278 0 0 1 2.199 2.651c.441 1.133.572 2.419.396 3.856-.179 1.457-.644 2.761-1.395 3.911s-1.722 2.021-2.912 2.612a8.268 8.268 0 0 1-3.726.887c-1.402 0-2.615-.327-3.639-.98a5.365 5.365 0 0 1-2.182-2.676c-.43-1.13-.567-2.326-.412-3.587zm2.028.03c-.213 1.732.103 3.096.946 4.092.843.996 1.993 1.495 3.449 1.495 1.484 0 2.766-.503 3.848-1.509 1.082-1.006 1.737-2.434 1.964-4.283.144-1.169.063-2.191-.239-3.063-.303-.873-.819-1.549-1.55-2.029-.73-.48-1.587-.72-2.569-.72-1.396 0-2.652.463-3.772 1.387-1.119.923-1.812 2.467-2.077 4.63zM228.455 75.352l1.764-14.368h2.967l2.355 9.534c.209.947.359 1.656.45 2.127.233-.523.592-1.291 1.075-2.303l4.716-9.357h2.652l-1.764 14.368h-1.899l1.477-12.026-5.727 11.386h-1.778l-2.885-11.592-1.502 12.232h-1.901z"/></g></g><path fill="#2587D2" d="M67.997 67.922L64.32 63.73l6.353-51.744c.703-5.729-2.54-10.374-7.243-10.374H20.848c-4.704 0-9.088 4.645-9.791 10.374L4.687 63.86c-.704 5.73 2.54 10.375 7.244 10.375h41.822l.002-.002 3.139 3.578c.675.77 1.923.77 2.787 0l7.975-7.102c.863-.769 1.017-2.017.341-2.787zm-19.616-8.037H21.244l5.393-43.924h27.137l-5.393 43.924z"/></g></switch></svg>